<?xml version="1.0" encoding="UTF-8"?>
<!DOCTYPE svg PUBLIC "-//W3C//DTD SVG 1.1//EN" "http://www.w3.org/Graphics/SVG/1.1/DTD/svg11.dtd">
<!-- Creator: CorelDRAW 2017 -->
<svg xmlns="http://www.w3.org/2000/svg" xml:space="preserve" width="99.4832mm" height="123.119mm" version="1.1" style="shape-rendering:geometricPrecision; text-rendering:geometricPrecision; image-rendering:optimizeQuality; fill-rule:evenodd; clip-rule:evenodd"
viewBox="0 0 9948.32 12311.94"
 xmlns:xlink="http://www.w3.org/1999/xlink">
 <defs>
  <style type="text/css">
   <![CDATA[
    .str0 {stroke:#409eff;stroke-width:853.51;stroke-miterlimit:4}
    .fil1 {fill:none;fill-rule:nonzero}
    .fil0 {fill:#409eff;fill-rule:nonzero}
   ]]>
  </style>
 </defs>
 <g id="Слой_x0020_1">
  <metadata id="CorelCorpID_0Corel-Layer"/>
  <path class="fil0" d="M4990.14 13.37c-2.75,0.95 -1123.1,1921.4 -2489.83,4267.9l-2485.01 4266.71 2300.07 3.98c1265.04,2.33 2950.79,3.6 3745.91,3.04l1445.86 -1.38 -1258.99 -2152.22c-692.47,-1183.61 -1260.34,-2152.09 -1261.99,-2152.23 -2.09,0 -1159.09,1908.46 -1425.3,2350.24l1111.36 0c165.38,-272.42 300.71,-492.23 302.65,-490.01 2.75,3.03 839.75,1432.17 873.37,1491.44 0,2.33 -938,4.41 -2087.46,4.41 -1435.48,0 -2089.93,-1.66 -2089.93,-6.07 0,-6.88 3301.37,-5677.78 3312.27,-5689.49 5.65,-6.21 426.79,717.41 2096,3602.18 963.26,1664.54 1481.66,2559.86 1764.31,3044.79l1094 0c-157.76,-280.32 -4943.3,-8544.67 -4947.29,-8543.58l0 0.29z"/>
  <path class="fil1 str0" d="M5947.76 10891.31c0,541.01 -438.5,979.52 -979.52,979.52 -541.02,0 -979.53,-438.51 -979.53,-979.52 0,-540.88 438.51,-979.5 979.53,-979.5 541.02,0 979.52,438.62 979.52,979.5zm0 0z"/>
 </g>
</svg>
